<svg width="165.000000" height="46.110596" viewBox="0 0 165 46.1106" fill="none" xmlns="http://www.w3.org/2000/svg" xmlns:xlink="http://www.w3.org/1999/xlink">
	<desc>
			Created with Pixso.
	</desc>
	<defs/>
	<path id="Барча турдаги китоблар" d="M145.06 37.3604Q145.06 36.4229 145.207 35.7461C145.307 35.2949 145.455 34.9229 145.65 34.6301Q145.889 34.2742 146.219 34.0566L146.219 34.0566Q146.3 34.0032 146.387 33.958C146.713 33.7476 147.104 33.5859 147.562 33.4731C148.022 33.3604 148.556 33.2688 149.163 33.1987L149.236 33.6104C148.919 33.647 148.624 33.688 148.353 33.7339C148.085 33.7795 147.839 33.8313 147.617 33.8894C147.394 33.9441 147.194 34.0066 147.018 34.0769C146.844 34.147 146.693 34.2263 146.565 34.3147C146.364 34.4365 146.191 34.6089 146.048 34.8313C145.905 35.051 145.79 35.3223 145.705 35.6455C145.62 35.9688 145.566 36.3467 145.545 36.7795L145.582 36.7795Q145.627 36.697 145.68 36.6196L145.68 36.6194Q145.824 36.4092 146.021 36.2354Q146.042 36.2166 146.065 36.1985Q146.323 35.9868 146.652 35.8604Q147.008 35.7188 147.434 35.7188C147.852 35.7188 148.202 35.8071 148.486 35.9839C148.772 36.1577 148.989 36.4138 149.135 36.7522Q149.355 37.2554 149.355 37.9778Q149.355 38.7188 149.117 39.2766C148.958 39.6455 148.72 39.9321 148.403 40.1365C148.089 40.3376 147.696 40.4382 147.223 40.4382C146.839 40.4382 146.51 40.3606 146.236 40.2051C145.961 40.0466 145.737 39.8286 145.563 39.551C145.393 39.2705 145.266 38.9443 145.184 38.5725C145.101 38.1973 145.06 37.7935 145.06 37.3604ZM60.7416 40.3469L60.7416 33.6606L64.478 33.6606L64.478 34.0859L61.2127 34.0859L61.2127 36.5967L62.4612 36.5967Q63.257 36.5967 63.7692 36.7935C64.1107 36.9214 64.3637 37.1196 64.5284 37.3879Q64.7799 37.7903 64.7799 38.4214C64.7799 39.0496 64.597 39.5283 64.2311 39.8574Q63.6869 40.3469 62.571 40.3469L60.7416 40.3469ZM73.3732 35.2795C74.0135 35.2795 74.5089 35.4946 74.8596 35.9246C75.2132 36.3542 75.39 36.9885 75.39 37.8269C75.39 38.3879 75.3062 38.8635 75.1385 39.2539C74.9708 39.6411 74.7314 39.9353 74.4205 40.1365C74.1125 40.3376 73.7421 40.4382 73.3091 40.4382C73.0104 40.4382 72.7497 40.394 72.5271 40.3057C72.3076 40.2141 72.1247 40.0923 71.9783 39.9399Q71.7731 39.7217 71.6558 39.4636Q71.6476 39.4458 71.6399 39.4277L71.6079 39.4277C71.617 39.6013 71.6246 39.7827 71.6307 39.9719C71.6368 40.1609 71.6399 40.3391 71.6399 40.5068L71.6399 42.5466L71.1734 42.5466L71.1734 35.3757L71.5576 35.3757L71.6125 36.3682L71.6399 36.3682Q71.7634 36.0845 71.9875 35.833C72.1368 35.6653 72.3259 35.5312 72.5546 35.4304Q72.8976 35.2795 73.3732 35.2795ZM100.264 35.2795Q100.927 35.2795 101.383 35.5867Q101.588 35.7246 101.751 35.9246C102.104 36.3542 102.281 36.9885 102.281 37.8269C102.281 38.3879 102.197 38.8635 102.03 39.2539Q101.811 39.7593 101.429 40.0537L101.429 40.054Q101.372 40.0974 101.312 40.1365C101.004 40.3376 100.633 40.4382 100.2 40.4382C99.9016 40.4382 99.6409 40.394 99.4183 40.3057C99.1989 40.2141 99.0159 40.0923 98.8696 39.9399Q98.6643 39.7217 98.547 39.4636L98.5455 39.4604Q98.5381 39.4441 98.5311 39.4277L98.4991 39.4277C98.5082 39.6013 98.5159 39.7827 98.522 39.9719C98.5281 40.1609 98.5311 40.3391 98.5311 40.5068L98.5311 42.5466L98.0646 42.5466L98.0646 35.3757L98.4488 35.3757L98.5037 36.3682L98.5311 36.3682C98.6135 36.179 98.7293 36.0007 98.8787 35.833C99.0281 35.6653 99.2171 35.5312 99.4458 35.4304C99.6744 35.3298 99.9473 35.2795 100.264 35.2795ZM143.958 37.8545C143.958 38.2385 143.911 38.5891 143.816 38.9062C143.722 39.2202 143.582 39.4917 143.396 39.7202C143.21 39.949 142.978 40.1257 142.7 40.2507C142.426 40.3757 142.106 40.4382 141.74 40.4382C141.392 40.4382 141.083 40.3774 140.812 40.2554C140.54 40.1304 140.31 39.9536 140.121 39.7249C139.935 39.4961 139.793 39.2249 139.696 38.9109Q139.549 38.4353 139.549 37.8545Q139.549 37.054 139.815 36.4778C139.995 36.0906 140.251 35.7949 140.583 35.5906C140.918 35.3833 141.319 35.2795 141.786 35.2795C142.267 35.2795 142.668 35.3894 142.989 35.6089Q143.122 35.6985 143.238 35.8076L143.238 35.8079Q143.54 36.094 143.716 36.5144Q143.958 37.0952 143.958 37.8545ZM162.983 35.2795C163.623 35.2795 164.119 35.4946 164.469 35.9246C164.823 36.3542 165 36.9885 165 37.8269C165 38.3879 164.916 38.8635 164.748 39.2539C164.581 39.6411 164.341 39.9353 164.03 40.1365C163.723 40.3376 163.352 40.4382 162.919 40.4382C162.62 40.4382 162.36 40.394 162.137 40.3057C161.918 40.2141 161.735 40.0923 161.588 39.9399Q161.383 39.7219 161.266 39.4639Q161.258 39.4458 161.25 39.4277L161.218 39.4277C161.227 39.6013 161.235 39.7827 161.241 39.9719C161.247 40.1609 161.25 40.3391 161.25 40.5068L161.25 42.5466L160.783 42.5466L160.783 35.3757L161.168 35.3757L161.222 36.3682L161.25 36.3682C161.332 36.179 161.448 36.0007 161.597 35.833C161.747 35.6653 161.936 35.5312 162.165 35.4304C162.393 35.3298 162.666 35.2795 162.983 35.2795ZM67.9401 35.2888C68.4858 35.2888 68.8943 35.426 69.1657 35.7004Q69.5728 36.1121 69.5728 37.0129L69.5728 40.3469L69.216 40.3469L69.1337 39.478L69.1063 39.478C68.9996 39.6638 68.87 39.8301 68.7175 39.9763C68.5651 40.1196 68.3776 40.2324 68.155 40.3149C67.9355 40.3972 67.6672 40.4382 67.3501 40.4382C67.03 40.4382 66.7556 40.385 66.5269 40.2783C66.3013 40.1716 66.126 40.0161 66.001 39.8118Q65.8181 39.5054 65.8181 39.0664C65.8181 38.5725 66.0223 38.1973 66.4308 37.9412C66.8394 37.6821 67.4263 37.5359 68.1916 37.5022L69.1154 37.4565L69.1154 37.0952C69.1154 36.5859 69.0148 36.2231 68.8136 36.0068Q68.784 35.9749 68.7516 35.9463Q68.4539 35.6821 67.9218 35.6821Q67.5494 35.6821 67.2029 35.7766Q67.1919 35.7795 67.1809 35.7827C66.9461 35.8467 66.7068 35.9397 66.4629 36.0615L66.3165 35.6775C66.5543 35.5647 66.809 35.4717 67.0803 35.3984Q67.4919 35.2888 67.9401 35.2888ZM83.9193 35.2888C84.4651 35.2888 84.8736 35.426 85.145 35.7004Q85.552 36.1121 85.552 37.0129L85.552 40.3469L85.1953 40.3469L85.113 39.478L85.0855 39.478C84.9788 39.6638 84.8492 39.8301 84.6968 39.9763C84.5443 40.1196 84.3568 40.2324 84.1343 40.3149C83.9147 40.3972 83.6464 40.4382 83.3293 40.4382C83.0092 40.4382 82.7348 40.385 82.5062 40.2783C82.2805 40.1716 82.1052 40.0161 81.9802 39.8118Q81.7973 39.5054 81.7973 39.0664C81.7973 38.5725 82.0016 38.1973 82.4101 37.9412C82.8187 37.6821 83.4056 37.5359 84.1708 37.5022L85.0947 37.4565L85.0947 37.0952C85.0947 36.5859 84.994 36.2231 84.7928 36.0068C84.5916 35.7903 84.2943 35.6821 83.901 35.6821C83.6449 35.6821 83.3979 35.7156 83.1602 35.7827C82.9254 35.8467 82.686 35.9397 82.4421 36.0615L82.2958 35.6775C82.5336 35.5647 82.7881 35.4717 83.0595 35.3984C83.3339 35.3254 83.6205 35.2888 83.9193 35.2888ZM110.49 35.2888C111.036 35.2888 111.445 35.426 111.716 35.7004C111.987 35.9749 112.123 36.4124 112.123 37.0129L112.123 40.3469L111.766 40.3469L111.684 39.478L111.657 39.478C111.55 39.6638 111.42 39.8301 111.268 39.9763C111.115 40.1196 110.928 40.2324 110.705 40.3149C110.486 40.3972 110.218 40.4382 109.9 40.4382C109.58 40.4382 109.306 40.385 109.077 40.2783C108.852 40.1716 108.676 40.0161 108.551 39.8118C108.429 39.6074 108.368 39.3591 108.368 39.0664C108.368 38.5725 108.573 38.1973 108.981 37.9412C109.39 37.6821 109.977 37.5359 110.742 37.5022L111.666 37.4565L111.666 37.0952C111.666 36.5859 111.565 36.2231 111.364 36.0068Q111.334 35.9751 111.302 35.9465L111.302 35.9463Q111.004 35.6821 110.472 35.6821C110.216 35.6821 109.969 35.7156 109.731 35.7827C109.496 35.8467 109.257 35.9397 109.013 36.0615L108.867 35.6775C109.105 35.5647 109.359 35.4717 109.631 35.3984C109.905 35.3254 110.192 35.2888 110.49 35.2888ZM157.55 35.2888C158.096 35.2888 158.504 35.426 158.776 35.7004C159.047 35.9749 159.183 36.4124 159.183 37.0129L159.183 40.3469L158.826 40.3469L158.744 39.478L158.716 39.478C158.609 39.6638 158.48 39.8301 158.328 39.9763C158.175 40.1196 157.988 40.2324 157.765 40.3149C157.545 40.3972 157.277 40.4382 156.96 40.4382C156.64 40.4382 156.366 40.385 156.137 40.2783C155.911 40.1716 155.736 40.0161 155.611 39.8118C155.489 39.6074 155.428 39.3591 155.428 39.0664C155.428 38.5725 155.632 38.1973 156.041 37.9412C156.449 37.6821 157.036 37.5359 157.802 37.5022L158.725 37.4565L158.725 37.0952C158.725 36.5859 158.625 36.2231 158.424 36.0068C158.222 35.7903 157.925 35.6821 157.532 35.6821Q157.159 35.6821 156.813 35.7766Q156.802 35.7795 156.791 35.7827C156.556 35.8467 156.317 35.9397 156.073 36.0615L155.927 35.6775C156.164 35.5647 156.419 35.4717 156.69 35.3984C156.965 35.3254 157.251 35.2888 157.55 35.2888ZM77.137 35.3757L77.137 37.0449C77.137 37.4626 77.2407 37.7676 77.4481 37.9595C77.6553 38.1487 77.9587 38.2432 78.3582 38.2432C78.6996 38.2432 79.006 38.1897 79.2773 38.083C79.5518 37.9763 79.814 37.833 80.064 37.6531L80.064 35.3757L80.5259 35.3757L80.5259 40.3469L80.064 40.3469L80.064 38.0557C79.7927 38.2385 79.5198 38.3818 79.2454 38.4856Q78.8383 38.6411 78.285 38.6411C77.7575 38.6411 77.3566 38.5068 77.0822 38.2385C76.8108 37.9673 76.6752 37.5876 76.6752 37.0999L76.6752 35.3757L77.137 35.3757ZM92.7504 35.7827L91.0674 35.7827L91.0674 40.3469L90.6147 40.3469L90.6147 35.7827L88.9409 35.7827L88.9409 35.3757L92.7504 35.3757L92.7504 35.7827ZM92.9425 35.3757L93.4318 35.3757L94.6392 38.5312C94.7124 38.7173 94.7764 38.8894 94.8313 39.0481C94.8892 39.2036 94.9395 39.3469 94.9822 39.478C95.0249 39.606 95.0599 39.7234 95.0874 39.8301L95.1149 39.8301C95.1606 39.6899 95.2216 39.51 95.2978 39.2905C95.374 39.0679 95.4609 38.8208 95.5585 38.5496L96.7521 35.3757L97.246 35.3757L94.9777 41.2798Q94.813 41.7097 94.6163 42.0071C94.4852 42.2083 94.3313 42.3591 94.1544 42.4597C93.9776 42.5635 93.7642 42.6152 93.5142 42.6152C93.4014 42.6152 93.2992 42.6062 93.2078 42.5879C93.1163 42.5725 93.0279 42.5513 92.9425 42.5237L92.9425 42.126C93.0218 42.1504 93.1025 42.1702 93.1849 42.1853C93.2703 42.2036 93.3632 42.2129 93.4639 42.2129C93.6376 42.2129 93.787 42.1763 93.912 42.103C94.0401 42.033 94.1544 41.9231 94.2551 41.7737C94.3557 41.6243 94.4502 41.4338 94.5386 41.2021L94.877 40.3193L92.9425 35.3757ZM107.042 35.3757L107.042 39.9399L107.71 39.9399L107.71 42.0298L107.257 42.0298L107.257 40.3469L103.452 40.3469L103.452 42.0298L103.004 42.0298L103.004 39.9399L103.338 39.9399C103.618 39.5527 103.853 39.1211 104.042 38.6455C104.231 38.1699 104.374 37.6577 104.472 37.1089C104.573 36.5571 104.626 35.9792 104.632 35.3757L107.042 35.3757ZM116.651 35.3757L116.651 35.7827L114.19 35.7827L114.19 40.3469L113.724 40.3469L113.724 35.3757L116.651 35.3757ZM118.123 35.3757L118.123 38.9475C118.123 39.0176 118.122 39.0891 118.119 39.1624C118.119 39.2356 118.117 39.3103 118.114 39.3865C118.114 39.4626 118.113 39.5374 118.11 39.6106C118.107 39.6838 118.102 39.7554 118.096 39.8254L121.064 35.3757L121.631 35.3757L121.631 40.3469L121.192 40.3469L121.192 36.4595C121.195 36.3589 121.198 36.2598 121.201 36.1624C121.204 36.0615 121.207 35.967 121.21 35.8787L118.228 40.3469L117.675 40.3469L117.675 35.3757L118.123 35.3757ZM128.441 35.3757L128.976 35.3757L126.726 37.7903L129.113 40.3469L128.541 40.3469L126.2 37.8269L126.2 40.3469L125.733 40.3469L125.733 35.3757L126.2 35.3757L126.2 37.7903L128.441 35.3757ZM130.48 35.3757L130.48 38.9475Q130.48 39.0525 130.476 39.1624C130.476 39.2356 130.474 39.3103 130.471 39.3865Q130.471 39.5007 130.467 39.6106C130.464 39.6838 130.459 39.7554 130.453 39.8254L133.421 35.3757L133.988 35.3757L133.988 40.3469L133.549 40.3469L133.549 36.4595C133.552 36.3589 133.555 36.2598 133.558 36.1624C133.561 36.0615 133.564 35.967 133.567 35.8787L130.586 40.3469L130.032 40.3469L130.032 35.3757L130.48 35.3757ZM138.822 35.7827L137.139 35.7827L137.139 40.3469L136.686 40.3469L136.686 35.7827L135.013 35.7827L135.013 35.3757L138.822 35.3757L138.822 35.7827ZM154.157 40.3469L153.695 40.3469L153.695 35.7781L151.957 35.7781C151.899 36.5618 151.83 37.2446 151.751 37.8269C151.672 38.4062 151.57 38.8865 151.445 39.2676Q151.257 39.8347 150.978 40.1135C150.792 40.2996 150.562 40.3926 150.288 40.3926C150.208 40.3926 150.138 40.3879 150.077 40.3789C150.016 40.3728 149.967 40.3635 149.931 40.3513L149.931 39.9763C149.967 39.9856 150.009 39.9932 150.054 39.9993C150.1 40.0024 150.156 40.0039 150.224 40.0039C150.379 40.0039 150.518 39.946 150.64 39.8301C150.762 39.7112 150.87 39.5312 150.964 39.2905C151.062 39.0496 151.146 38.7461 151.216 38.3804C151.286 38.0115 151.347 37.5769 151.399 37.0769Q151.481 36.3269 151.545 35.3757L154.157 35.3757L154.157 40.3469ZM73.3137 35.6865C72.9387 35.6865 72.6262 35.769 72.3762 35.9336C72.1293 36.0952 71.9448 36.333 71.8228 36.647Q71.6445 37.1135 71.6399 37.7903L71.6399 37.8682C71.6399 38.3528 71.6993 38.7568 71.8182 39.0801C71.9402 39.4001 72.1216 39.6394 72.3625 39.7981C72.6064 39.9565 72.9083 40.0359 73.268 40.0359C73.6217 40.0359 73.9205 39.949 74.1644 39.7751Q74.1764 39.7666 74.1882 39.7578Q74.5366 39.4983 74.7224 39.0205C74.8504 38.6914 74.9144 38.292 74.9144 37.8223C74.9144 37.1243 74.7803 36.5938 74.512 36.231Q74.3938 36.0693 74.2402 35.9556Q73.8764 35.6865 73.3137 35.6865ZM100.205 35.6865C99.83 35.6865 99.5175 35.769 99.2675 35.9336C99.0204 36.0952 98.836 36.333 98.7141 36.647C98.5952 36.958 98.5342 37.3391 98.5311 37.7903L98.5311 37.8682C98.5311 38.3528 98.5906 38.7568 98.7095 39.0801C98.8314 39.4001 99.0128 39.6394 99.2537 39.7981C99.4976 39.9565 99.7994 40.0359 100.159 40.0359Q100.647 40.0359 100.995 39.8159Q101.026 39.7964 101.056 39.7751C101.299 39.6013 101.485 39.3499 101.614 39.0205Q101.806 38.5266 101.806 37.8223C101.806 37.1243 101.671 36.5938 101.403 36.231C101.138 35.8679 100.739 35.6865 100.205 35.6865ZM140.025 37.8545C140.025 38.2903 140.088 38.6714 140.213 38.9978C140.338 39.324 140.527 39.5786 140.78 39.7615C141.036 39.9443 141.359 40.0359 141.749 40.0359C142.149 40.0359 142.476 39.9443 142.732 39.7615C142.989 39.5786 143.178 39.3225 143.299 38.9932C143.421 38.6638 143.482 38.2842 143.482 37.8545C143.482 37.4368 143.424 37.0647 143.309 36.7385C143.193 36.4124 143.01 36.1562 142.76 35.9702Q142.385 35.6865 141.781 35.6865C141.205 35.6865 140.767 35.8787 140.469 36.2629C140.173 36.647 140.025 37.1775 140.025 37.8545ZM162.924 35.6865C162.549 35.6865 162.236 35.769 161.986 35.9336C161.739 36.0952 161.555 36.333 161.433 36.647C161.314 36.958 161.253 37.3391 161.25 37.7903L161.25 37.8682C161.25 38.3528 161.309 38.7568 161.428 39.0801C161.55 39.4001 161.732 39.6394 161.972 39.7981Q162.338 40.0359 162.878 40.0359C163.232 40.0359 163.53 39.949 163.774 39.7751C164.018 39.6013 164.204 39.3499 164.332 39.0205Q164.524 38.5266 164.524 37.8223Q164.524 36.7751 164.122 36.231C163.857 35.8679 163.457 35.6865 162.924 35.6865ZM106.589 35.7644L105.053 35.7644C105.028 36.3101 104.967 36.833 104.87 37.333Q104.723 38.0784 104.467 38.7371C104.297 39.1731 104.089 39.574 103.845 39.9399L106.589 39.9399L106.589 35.7644ZM147.26 40.0359C147.626 40.0359 147.928 39.9551 148.166 39.7935C148.403 39.6289 148.58 39.3955 148.696 39.0938C148.812 38.7888 148.87 38.4275 148.87 38.0098C148.87 37.3909 148.743 36.9229 148.49 36.606C148.237 36.2856 147.867 36.1257 147.379 36.1257C147.095 36.1257 146.838 36.1775 146.606 36.2812C146.374 36.3848 146.169 36.5281 145.989 36.7109C145.812 36.8909 145.659 37.0981 145.531 37.333C145.531 37.6714 145.557 38.0022 145.609 38.3254C145.661 38.6455 145.751 38.9353 145.879 39.1943C146.007 39.4536 146.182 39.6594 146.405 39.8118C146.63 39.9612 146.916 40.0359 147.26 40.0359ZM61.2127 39.9307L62.5024 39.9307Q63.4353 39.9307 63.8607 39.5693Q63.8997 39.5361 63.9352 39.4995L63.9352 39.4995Q64.2905 39.1323 64.2905 38.4214Q64.2905 37.8772 64.0756 37.5708C63.9323 37.3665 63.7189 37.2231 63.4353 37.1409Q63.0146 37.0176 62.3926 37.0176L61.2127 37.0176L61.2127 39.9307ZM69.1108 37.8179L68.2419 37.8545C67.6108 37.8848 67.1306 37.9978 66.8013 38.1929Q66.5641 38.3333 66.4409 38.5415Q66.3074 38.7666 66.3074 39.0708C66.3074 39.385 66.405 39.6257 66.6001 39.7935Q66.8973 40.0449 67.4233 40.0449C67.9691 40.0449 68.3852 39.8894 68.6718 39.5786C68.9614 39.2676 69.1078 38.8438 69.1108 38.3071L69.1108 37.8179ZM85.0901 37.8179L84.2211 37.8545C83.59 37.8848 83.1098 37.9978 82.7805 38.1929Q82.5433 38.3333 82.4201 38.5415Q82.2866 38.7666 82.2866 39.0708C82.2866 39.385 82.3842 39.6257 82.5793 39.7935C82.7775 39.9612 83.0519 40.0449 83.4025 40.0449C83.9483 40.0449 84.3644 39.8894 84.6511 39.5786C84.9407 39.2676 85.087 38.8438 85.0901 38.3071L85.0901 37.8179ZM111.661 37.8179L110.792 37.8545C110.161 37.8848 109.681 37.9978 109.352 38.1929C109.022 38.3879 108.858 38.6807 108.858 39.0708C108.858 39.385 108.955 39.6257 109.15 39.7935C109.349 39.9612 109.623 40.0449 109.974 40.0449C110.519 40.0449 110.936 39.8894 111.222 39.5786C111.512 39.2676 111.658 38.8438 111.661 38.3071L111.661 37.8179ZM158.721 37.8179L157.852 37.8545C157.221 37.8848 156.741 37.9978 156.411 38.1929C156.082 38.3879 155.917 38.6807 155.917 39.0708C155.917 39.385 156.015 39.6257 156.21 39.7935C156.408 39.9612 156.683 40.0449 157.033 40.0449C157.579 40.0449 157.995 39.8894 158.282 39.5786Q158.324 39.5334 158.362 39.4854Q158.717 39.0344 158.721 38.3071L158.721 37.8179Z" fill="#11142D" fill-opacity="1.000000" fill-rule="evenodd"/>
	<path id="Liber" d="M79.1537 6.48438C79.7278 6.48438 80.2218 6.61938 80.6355 6.88965Q80.7151 6.93994 80.7845 7.00171Q81.256 7.42188 81.256 8.37134Q81.256 9.30347 80.7908 9.7417L80.7894 9.74316Q80.718 9.8103 80.6355 9.86572C80.2218 10.136 79.7278 10.271 79.1537 10.271C78.5712 10.271 78.073 10.136 77.6593 9.86572Q77.5881 9.81689 77.5251 9.75879L77.525 9.75879L77.525 9.75854L77.525 9.75854Q77.0514 9.32153 77.0514 8.37134Q77.0514 7.40479 77.5303 6.98682L77.5304 6.98657Q77.591 6.93384 77.6593 6.88965C78.073 6.61938 78.5712 6.48438 79.1537 6.48438ZM91.3411 11.0688L91.3411 6.48438L87.4785 6.48438L87.4785 26.1904L90.4293 26.1904L91.0752 24.6328L91.3411 24.6328C91.7126 25.0972 92.1981 25.5151 92.7976 25.8865C93.397 26.2581 94.216 26.4438 95.2545 26.4438C96.3353 26.4438 97.2851 26.1694 98.1041 25.6206C98.923 25.0635 99.5605 24.2402 100.016 23.1511Q100.7 21.5046 100.7 19.0857C100.7 16.6877 100.206 14.8684 99.2186 13.6272C98.2307 12.386 96.9431 11.7656 95.3558 11.7656C94.3342 11.7656 93.5026 11.9724 92.8609 12.386C92.2192 12.7913 91.7126 13.2852 91.3411 13.8679L91.1892 13.8679C91.2314 13.5808 91.2651 13.1755 91.2905 12.6521Q91.3411 11.8669 91.3411 11.0688ZM60.52 26.1904L60.52 7.6748L64.446 7.6748L64.446 22.9485L71.9562 22.9485L71.9562 26.1904L60.52 26.1904ZM112.065 11.7656C113.373 11.7656 114.5 12.0188 115.446 12.5254C116.392 13.0234 117.122 13.7498 117.637 14.7036C118.152 15.6577 118.409 16.823 118.409 18.1992L118.409 20.0735L109.278 20.0735C109.321 21.1626 109.646 22.0195 110.253 22.6445C110.87 23.2607 111.723 23.5688 112.812 23.5688C113.715 23.5688 114.543 23.4761 115.294 23.2903C116.045 23.1045 116.818 22.8259 117.612 22.4543L117.612 25.4434C116.911 25.7896 116.176 26.0427 115.408 26.2031C114.648 26.3635 113.724 26.4438 112.634 26.4438C111.216 26.4438 109.958 26.1821 108.86 25.6587C107.771 25.1353 106.914 24.3372 106.289 23.2649C105.673 22.1926 105.365 20.8418 105.365 19.2124Q105.365 16.73 106.201 15.0837C106.766 13.9775 107.552 13.1501 108.556 12.6013Q110.064 11.7656 112.065 11.7656ZM132.459 11.8035C132.205 11.7781 131.982 11.7656 131.787 11.7656Q131.05 11.7656 130.392 11.9927Q130.213 12.0544 130.04 12.1328C129.508 12.3691 129.031 12.6899 128.609 13.0952C128.195 13.4922 127.849 13.9312 127.57 14.4124L127.38 14.4124L126.81 12.0315L123.885 12.0315L123.885 26.1904L127.747 26.1904L127.747 18.9844C127.747 18.3174 127.853 17.7559 128.064 17.3Q128.366 16.6604 128.861 16.2556Q128.905 16.2197 128.951 16.1855C129.322 15.8984 129.74 15.6917 130.204 15.5649C130.677 15.4382 131.163 15.375 131.661 15.375C131.83 15.375 132.028 15.3877 132.256 15.4128C132.492 15.4299 132.674 15.4595 132.801 15.5017L133.092 11.8794C132.931 11.8457 132.72 11.8203 132.459 11.8035ZM81.0787 12.0315L81.0787 26.1904L77.2161 26.1904L77.2161 12.0315L81.0787 12.0315ZM112.09 14.5137C111.338 14.5137 110.714 14.7544 110.216 15.2356C109.726 15.7168 109.443 16.4727 109.367 17.5027L114.787 17.5027C114.779 16.9285 114.673 16.4177 114.471 15.9702C114.277 15.5227 113.981 15.168 113.584 14.9062Q113.002 14.5137 112.09 14.5137ZM92.5063 15.2737C92.9031 14.9951 93.4393 14.8557 94.1147 14.8557Q94.6848 14.8557 95.1431 15.082Q95.6723 15.3435 96.0524 15.9067C96.5252 16.6077 96.7616 17.6504 96.7616 19.0349C96.7616 20.4197 96.5252 21.4792 96.0524 22.2139C95.588 22.9485 94.959 23.3157 94.1653 23.3157Q92.9821 23.3157 92.3403 22.7261L92.34 22.7258Q92.1096 22.5142 91.949 22.2266C91.5438 21.4919 91.3411 20.4365 91.3411 19.0603L91.3411 18.6423Q91.3665 17.3633 91.6324 16.5273Q91.8971 15.7334 92.4473 15.3167Q92.4764 15.2947 92.5063 15.2737Z" fill="#11142D" fill-opacity="1.000000" fill-rule="evenodd"/>
	<path id="Rectangle 8" d="M0 10.0867C0 4.51587 4.51593 0 10.0867 0L36.0238 0C41.5945 0 46.1105 4.51587 46.1105 10.0867L46.1105 36.0239C46.1105 41.5945 41.5945 46.1106 36.0238 46.1106L10.0867 46.1106C4.51593 46.1106 0 41.5945 0 36.0239L0 10.0867Z" fill="#3F51B5" fill-opacity="1.000000" fill-rule="nonzero"/>
</svg>
